<svg width="50" height="50" viewBox="0 0 50 50" fill="none" xmlns="http://www.w3.org/2000/svg">
<circle cx="25" cy="25" r="25" fill="white"/>
<path d="M23.2219 34.3346C23.7442 34.3346 24.1562 34.1167 24.4425 33.68L33.8841 18.9613C34.0956 18.6302 34.1804 18.3532 34.1804 18.0806C34.1804 17.3889 33.6941 16.9116 32.9951 16.9116C32.4994 16.9116 32.2115 17.0784 31.9107 17.5505L23.1817 31.4181L18.6835 25.6344C18.3908 25.2467 18.0837 25.0844 17.6497 25.0844C16.9325 25.0844 16.4287 25.5864 16.4287 26.2798C16.4287 26.5778 16.54 26.8787 16.7905 27.1831L21.9946 33.6942C22.3412 34.1276 22.7158 34.3346 23.2219 34.3346Z" fill="#15E3A5"/>
</svg>
