<svg width="50" height="50" viewBox="0 0 50 50" fill="none" xmlns="http://www.w3.org/2000/svg">
<circle cx="25" cy="25" r="25" fill="#15E3A5"/>
<path d="M17.3752 32.5323C17.8749 33.0416 18.7435 33.0235 19.2284 32.5407L24.9373 26.8201L30.6537 32.5365C31.1471 33.0299 31.9955 33.0395 32.4952 32.5302C33.0141 32.0209 33.0045 31.1725 32.5015 30.6791L26.7968 24.9606L32.5015 19.2559C33.0045 18.7604 33.0141 17.9024 32.4952 17.4048C31.9955 16.8955 31.1471 16.9051 30.6537 17.3964L24.9373 23.1107L19.2284 17.3943C18.7435 16.9094 17.8749 16.8934 17.3752 17.4006C16.868 17.9003 16.884 18.7689 17.3689 19.2538L23.0895 24.9606L17.3689 30.6812C16.884 31.1661 16.868 32.023 17.3752 32.5323Z" fill="white"/>
</svg>
