<svg width="24" height="24" viewBox="0 0 24 24" fill="none" xmlns="http://www.w3.org/2000/svg">
<path d="M0 9.53718C0 14.801 4.27757 19.0765 9.53929 19.0765C11.4961 19.0765 13.2919 18.4751 14.7891 17.46L20.1729 22.8534C20.5099 23.1905 20.9564 23.351 21.4263 23.351C22.4236 23.351 23.1368 22.5973 23.1368 21.6117C23.1368 21.1481 22.9666 20.7155 22.6446 20.3935L17.3022 15.0202C18.4207 13.4815 19.0786 11.5898 19.0786 9.53718C19.0786 4.27547 14.801 0 9.53929 0C4.27757 0 0 4.27547 0 9.53718ZM2.48482 9.53718C2.48482 5.64491 5.64702 2.48482 9.53929 2.48482C13.4316 2.48482 16.5916 5.64491 16.5916 9.53718C16.5916 13.4316 13.4316 16.5916 9.53929 16.5916C5.64702 16.5916 2.48482 13.4316 2.48482 9.53718Z" fill="#15E3A5"/>
</svg>
