<svg width="50" height="50" viewBox="0 0 50 50" fill="none" xmlns="http://www.w3.org/2000/svg">
<circle cx="25" cy="25" r="25" fill="#15E3A5"/>
<path d="M15 24.8072C15 25.5269 15.5944 26.1138 16.3066 26.1138H23.5027V33.3098C23.5027 34.02 24.0874 34.6144 24.8072 34.6144C25.5269 34.6144 26.1234 34.02 26.1234 33.3098V26.1138H33.3098C34.02 26.1138 34.6144 25.5269 34.6144 24.8072C34.6144 24.0874 34.02 23.4909 33.3098 23.4909H26.1234V16.3066C26.1234 15.5944 25.5269 15 24.8072 15C24.0874 15 23.5027 15.5944 23.5027 16.3066V23.4909H16.3066C15.5944 23.4909 15 24.0874 15 24.8072Z" fill="white"/>
</svg>
